<svg viewBox="0 0 24 24" fill="none" xmlns="http://www.w3.org/2000/svg">
  <path d="M.045 18.02c.072-.116.187-.124.348-.022 3.636 2.11 7.594 3.166 11.87 3.166 2.852 0 5.668-.533 8.447-1.595l.315-.14c.138-.06.234-.1.293-.13.226-.088.39-.046.525.13.12.174.09.336-.12.48-.256.19-.6.41-1.006.654-1.244.743-2.64 1.316-4.185 1.726-1.548.41-3.146.615-4.795.615-3.302 0-6.465-.674-9.49-2.02-.515-.23-.696-.44-.696-.65 0-.11.043-.2.13-.26.087-.06.18-.09.28-.09.14 0 .28.04.42.12z" fill="currentColor"/>
  <path d="M18.78 16.5c-.36 0-.68-.2-.85-.52l-2.4-4.8c-.17-.34-.17-.74 0-1.08l2.4-4.8c.17-.32.49-.52.85-.52s.68.2.85.52l2.4 4.8c.17.34.17.74 0 1.08l-2.4 4.8c-.17.32-.49.52-.85.52z" fill="currentColor"/>
</svg>