<svg viewBox="0 0 24 24" fill="none" xmlns="http://www.w3.org/2000/svg">
  <rect width="24" height="24" rx="5.4" fill="url(#instagram-gradient)"/>
  <path d="M12 7.8c-2.32 0-4.2 1.88-4.2 4.2s1.88 4.2 4.2 4.2 4.2-1.88 4.2-4.2-1.88-4.2-4.2-4.2zm0 6.93c-1.51 0-2.73-1.22-2.73-2.73S10.49 9.27 12 9.27 14.73 10.49 14.73 12 13.51 14.73 12 14.73zM17.1 7.65c0 .54-.44.98-.98.98s-.98-.44-.98-.98.44-.98.98-.98.98.44.98.98zM12 5.35c-2.17 0-6.65-.09-6.65 6.65s4.48 6.65 6.65 6.65 6.65.09 6.65-6.65S14.17 5.35 12 5.35zm0 11.73c-2.79 0-5.08-2.29-5.08-5.08S9.21 6.92 12 6.92 17.08 9.21 17.08 12 14.79 17.08 12 17.08z" fill="white"/>
  <defs>
    <linearGradient id="instagram-gradient" x1="0" y1="0" x2="24" y2="24" gradientUnits="userSpaceOnUse">
      <stop stop-color="#405DE6"/>
      <stop offset="0.09" stop-color="#5B51D8"/>
      <stop offset="0.78" stop-color="#833AB4"/>
      <stop offset="1" stop-color="#C13584"/>
      <stop offset="1" stop-color="#E1306C"/>
      <stop offset="1" stop-color="#FD1D1D"/>
    </linearGradient>
  </defs>
</svg>