<svg viewBox="0 0 24 24" fill="none" xmlns="http://www.w3.org/2000/svg">
  <rect width="24" height="24" rx="4" fill="#000000"/>
  <path d="M22.2819 9.8211a5.9847 5.9847 0 0 0-.5157-4.9108 6.0462 6.0462 0 0 0-6.5098-2.9A6.0651 6.0651 0 0 0 4.9807 4.1818a5.9847 5.9847 0 0 0-3.9977 2.9 6.0462 6.0462 0 0 0 .7427 7.0966 5.98 5.98 0 0 0 .511 4.9107 6.051 6.051 0 0 0 6.5146 2.9001A5.9847 5.9847 0 0 0 13.2599 24a6.0557 6.0557 0 0 0 5.7718-4.2058 5.9894 5.9894 0 0 0 3.9977-2.9001 6.0557 6.0557 0 0 0-.7475-7.0729zm-9.022 12.6081a4.4755 4.4755 0 0 1-2.8764-1.0408l.1419-.0804 4.7783-2.7582a.7948.7948 0 0 0 .3927-.6813v-6.7369l2.02 1.1686a.071.071 0 0 1 .038.052v5.5826a4.504 4.504 0 0 1-4.4945 4.4944zm-9.6607-4.1254a4.4708 4.4708 0 0 1-.5346-3.0137l.142.0852 4.783 2.7582a.7712.7712 0 0 0 .7806 0l5.8428-3.3685v2.3324a.0804.0804 0 0 1-.0332.0615L9.74 19.9502a4.4992 4.4992 0 0 1-6.1408-1.6464zm-2.4107-16.0259a4.4755 4.4755 0 0 1 2.3976-1.9708v6.1497a.7663.7663 0 0 0 .3879.6765l5.8144 3.3543-2.0201 1.1685a.0757.0757 0 0 1-.071 0l-4.8303-2.7865A4.504 4.504 0 0 1 .6925 1.8648zm16.5651 3.8588l-5.8428-3.3685V.7739a.0804.0804 0 0 1 .0332-.0615l4.8303-2.7865a4.4992 4.4992 0 0 1 6.6802 4.66v5.8906a.7712.7712 0 0 0-.7806 0zm1.9963 4.3259c-.0815-.2007-.1665-.2007-.1665-.2007L15.2685 7.3312a.7712.7712 0 0 0-.7806 0L8.59 10.6997V8.3673a.0804.0804 0 0 1 .0332-.0615l4.8303-2.7865a4.4992 4.4992 0 0 1 6.1408 1.6464 4.4708 4.4708 0 0 1 .5346 3.0137zm-14.9187 3.6534L2.0201 11.168a.071.071 0 0 1-.038-.052V5.5826a4.504 4.504 0 0 1 7.3953-3.4776l-.1419.0804L4.4534 5.3436a.7948.7948 0 0 0-.3927.6813zm1.0757-2.3324L9.74 4.1818l2.9027 1.6758v3.3516L9.74 10.8594 6.8373 9.1836z" fill="#10A37F"/>
</svg>