<svg viewBox="0 0 24 24" fill="none" xmlns="http://www.w3.org/2000/svg">
  <path d="M7.88 12.04q0 .45-.11.87-.1.41-.33.74-.22.33-.58.52-.37.2-.87.2t-.85-.2q-.35-.21-.57-.55-.22-.33-.33-.75-.1-.42-.1-.86t.1-.87q.1-.43.34-.76.22-.34.59-.54.36-.2.87-.2t.86.2q.35.21.57.55.22.34.31.77.1.43.1.88zM1.14 19.3V4.7q0-.14.1-.24.1-.1.24-.1h5.27q.14 0 .24.1.1.1.1.24v14.6q0 .14-.1.24-.1.1-.24.1H1.48q-.14 0-.24-.1-.1-.1-.1-.24zM22.86 4.7v14.6q0 .14-.1.24-.1.1-.24.1H9.41q-.14 0-.24-.1-.1-.1-.1-.24V4.7q0-.14.1-.24.1-.1.24-.1h13.11q.14 0 .24.1.1.1.1.24z" fill="currentColor"/>
</svg>