<svg viewBox="0 0 24 24" fill="none" xmlns="http://www.w3.org/2000/svg">
  <path d="M15.8 4.4c-.3-.1-.7-.1-1.1-.1-.4 0-.8 0-1.2.1-.1-.3-.3-.6-.5-.8-.4-.4-.9-.6-1.5-.6h-.1c-.1 0-.2 0-.3.1-.1-.1-.2-.2-.4-.2-.5-.2-1.1-.1-1.7.3-.5.3-.9.8-1.2 1.4-.2.4-.3.8-.3 1.2 0 .1 0 .2.1.3-.1.1-.2.2-.2.4-.1.3-.1.7 0 1.1.1.4.3.8.6 1.1.2.2.4.3.7.4.1 0 .2.1.3.1h.1c.2 0 .4-.1.6-.2.2-.1.4-.3.5-.5.1-.2.2-.4.2-.6 0-.1 0-.2-.1-.3.1-.1.2-.2.2-.4.1-.3.1-.7 0-1.1-.1-.4-.3-.8-.6-1.1-.2-.2-.4-.3-.7-.4-.1 0-.2-.1-.3-.1h-.1c-.2 0-.4.1-.6.2-.2.1-.4.3-.5.5-.1.2-.2.4-.2.6 0 .1 0 .2.1.3z" fill="currentColor"/>
</svg>