<svg viewBox="0 0 24 24" fill="none" xmlns="http://www.w3.org/2000/svg">
  <rect width="24" height="24" rx="4" fill="#6772E5"/>
  <path d="M13.976 9.15c-2.172-.806-3.596-1.426-3.596-2.94 0-1.31 1.17-2.25 2.988-2.25 1.69 0 2.725.983 2.725 2.25 0 .414.336.75.75.75s.75-.336.75-.75c0-2.129-1.851-3.75-4.225-3.75-2.84 0-4.738 1.876-4.738 4 0 2.625 1.923 3.56 4.595 4.48 2.172.806 3.596 1.426 3.596 2.94 0 1.31-1.17 2.25-2.988 2.25-1.69 0-2.725-.983-2.725-2.25 0-.414-.336-.75-.75-.75s-.75.336-.75.75c0 2.129 1.851 3.75 4.225 3.75 2.84 0 4.738-1.876 4.738-4 0-2.625-1.923-3.56-4.595-4.48z" fill="white"/>
</svg>