<svg viewBox="0 0 24 24" fill="none" xmlns="http://www.w3.org/2000/svg">
  <rect width="24" height="24" rx="4" fill="#000000"/>
  <path d="M8.29 20.25c7.55 0 11.67-6.25 11.67-11.67 0-.18 0-.35-.01-.53A8.348 8.348 0 0 0 22 6.11a8.19 8.19 0 0 1-2.36.65 4.108 4.108 0 0 0 1.8-2.27 8.224 8.224 0 0 1-2.6.99 4.1 4.1 0 0 0-6.99 3.74 11.64 11.64 0 0 1-8.45-4.29 4.106 4.106 0 0 0 1.27 5.47A4.072 4.072 0 0 1 2.8 9.713v.052a4.105 4.105 0 0 0 3.292 4.022 4.095 4.095 0 0 1-1.853.07 4.108 4.108 0 0 0 3.834 2.85A8.233 8.233 0 0 1 2 18.407a11.616 11.616 0 0 0 6.29 1.84" fill="white"/>
</svg>