<svg viewBox="0 0 24 24" fill="none" xmlns="http://www.w3.org/2000/svg">
  <rect width="24" height="24" rx="4" fill="#FF0000"/>
  <path d="M19.615 7.154c-.228-1.162-1.022-2.073-2.154-2.323C15.962 4.5 12 4.5 12 4.5s-3.962 0-5.461.331c-1.132.25-1.926 1.161-2.154 2.323C4 8.796 4 12 4 12s0 3.204.385 4.846c.228 1.162 1.022 2.073 2.154 2.323C8.038 19.5 12 19.5 12 19.5s3.962 0 5.461-.331c1.132-.25 1.926-1.161 2.154-2.323C20 15.204 20 12 20 12s0-3.204-.385-4.846z" fill="white"/>
  <path d="m10 15.5 5.196-3.5L10 8.5v7z" fill="#FF0000"/>
</svg>